<?xml version="1.0" encoding="UTF-8"?>
<!--Generator: Apple Native CoreSVG 362-->
<!DOCTYPE svg
PUBLIC "-//W3C//DTD SVG 1.1//EN"
       "http://www.w3.org/Graphics/SVG/1.1/DTD/svg11.dtd">
<svg version="1.1" xmlns="http://www.w3.org/2000/svg" xmlns:xlink="http://www.w3.org/1999/xlink" viewBox="0 0 21.4033 21.9761">
 <g>
  <rect height="21.9761" opacity="0" width="21.4033" x="0" y="0"/>
  <path d="M21.4033 16.5479C21.4033 16.0879 21.1027 15.8143 20.6283 15.8143L6.54532 15.8143C6.34001 15.8143 6.26525 15.7396 6.26525 15.5239L6.26525 1.4496C6.26525 0.964821 5.95242 0.631087 5.48201 0.631087C5.00337 0.631087 4.69666 0.964821 4.69666 1.4496L4.69666 16.5038C4.69666 16.9746 5.00146 17.2815 5.47226 17.2815L20.6283 17.2815C21.1027 17.2815 21.4033 16.9955 21.4033 16.5479ZM0 6.06134C0 6.51929 0.300572 6.79494 0.774996 6.79494L14.858 6.79494C15.0736 6.79494 15.1484 6.8697 15.1484 7.07501L15.1484 21.1597C15.1484 21.6445 15.4509 21.9761 15.9295 21.9761C16.3999 21.9761 16.717 21.6445 16.717 21.1597L16.717 6.093C16.717 5.6243 16.4122 5.3174 15.9414 5.3174L0.774996 5.3174C0.300572 5.3174 0 5.6034 0 6.06134Z" fill="white" fill-opacity="0.85"/>
 </g>
</svg>
